<?xml version="1.0" encoding="UTF-8" standalone="no" ?>
<!DOCTYPE svg PUBLIC "-//W3C//DTD SVG 1.1//EN" "http://www.w3.org/Graphics/SVG/1.1/DTD/svg11.dtd">
<svg xmlns="http://www.w3.org/2000/svg" xmlns:xlink="http://www.w3.org/1999/xlink" version="1.1" width="1646" height="1646" viewBox="0 0 1646 1646" xml:space="preserve">
<desc>Created with Fabric.js 4.6.0</desc>
<defs>
</defs>
<g transform="matrix(2.33 0 0 2.33 823 823)" id="5VKOSVpmOvnGJ5T4-17Ef"  >
<linearGradient id="SVGID_250" gradientUnits="userSpaceOnUse" gradientTransform="matrix(1 0 0 1 -300 -249.51)"  x1="0" y1="249.51291071440818" x2="600.0020000000001" y2="249.51291071440818">
<stop offset="0%" style="stop-color:#6C3BF4;stop-opacity: 1"/>
<stop offset="19.166769444101856%" style="stop-color:#6C3BF4;stop-opacity: 1"/>
<stop offset="100%" style="stop-color:#FFF312;stop-opacity: 1"/>
</linearGradient>
<path style="stroke: none; stroke-width: 1; stroke-dasharray: none; stroke-linecap: butt; stroke-dashoffset: 0; stroke-linejoin: miter; stroke-miterlimit: 4; fill: url(#SVGID_250); fill-rule: nonzero; opacity: 1;" vector-effect="non-scaling-stroke"  transform=" translate(0, 0)" d="M 300.001 -108.8268 C 299.876 -108.82780000000001 299.851 -110.0248 299.739 -111.9008 C 299.561 -113.7748 299.359 -116.33080000000001 299.15099999999995 -119.06280000000001 C 298.84 -121.7848 298.37499999999994 -124.66780000000001 298.02699999999993 -127.23880000000001 C 297.56299999999993 -129.7898 297.04599999999994 -132.0038 296.7559999999999 -133.4248 C 296.7729999999999 -136.0188 296.4409999999999 -138.5548 296.2319999999999 -141.1488 C 295.3839999999999 -144.4128 294.77699999999993 -145.7318 294.5759999999999 -146.1738 C 294.3559999999999 -146.6098 294.4299999999999 -146.1318 294.5049999999999 -145.6528 C 294.6519999999999 -144.69480000000001 294.8069999999999 -143.74480000000003 292.6169999999999 -150.03680000000003 C 292.2539999999999 -151.16380000000004 291.7199999999999 -152.42880000000002 291.1169999999999 -153.84080000000003 C 290.5239999999999 -155.25580000000002 289.8689999999999 -156.81980000000004 289.1599999999999 -158.51080000000002 C 288.4119999999999 -160.1818 287.5039999999999 -161.92680000000001 286.6019999999999 -163.7938 C 286.1359999999999 -164.7198 285.69499999999994 -165.68880000000001 285.1769999999999 -166.6448 C 284.6409999999999 -167.5898 284.0929999999999 -168.5548 283.5349999999999 -169.5378 C 282.8259999999999 -170.8088 282.06299999999993 -172.0978 281.2779999999999 -173.39180000000002 C 280.8599999999999 -174.66780000000003 280.4559999999999 -175.95380000000003 280.0069999999999 -177.22180000000003 L 278.3489999999999 -181.31580000000002 C 271.8309999999999 -194.69680000000002 263.4369999999999 -206.22480000000002 253.61499999999987 -215.78480000000002 C 243.78599999999986 -225.33780000000002 232.63699999999986 -233.0568 220.37899999999988 -238.7478 C 218.84299999999988 -239.45080000000002 217.30499999999986 -240.15380000000002 215.76499999999987 -240.85780000000003 C 214.17199999999988 -241.44280000000003 212.57699999999988 -242.0278 210.97699999999986 -242.61480000000003 L 208.57599999999985 -243.48780000000002 C 207.76999999999984 -243.77580000000003 206.99699999999984 -244.08280000000002 206.09999999999985 -244.3188 C 204.36399999999986 -244.81980000000001 202.62499999999986 -245.3488 200.85999999999984 -245.7058 C 193.81899999999985 -247.31580000000002 186.62999999999985 -247.93480000000002 179.48399999999984 -247.7778 C 165.15099999999984 -247.50680000000003 150.97899999999984 -244.5018 136.47599999999983 -240.23280000000003 C 136.16199999999984 -240.44180000000003 138.53699999999984 -241.41780000000003 142.57499999999982 -242.71780000000004 C 146.6089999999998 -244.02380000000005 152.3529999999998 -245.57380000000003 158.7819999999998 -246.81280000000004 C 165.20699999999982 -248.05380000000005 172.3579999999998 -248.87780000000004 178.9829999999998 -248.99780000000004 C 185.60399999999981 -249.15180000000004 191.6729999999998 -248.52680000000004 195.7459999999998 -247.82480000000004 C 190.6849999999998 -248.96280000000004 184.9869999999998 -249.54180000000005 179.02099999999982 -249.51180000000005 C 173.05099999999982 -249.48980000000006 166.8179999999998 -248.87380000000005 160.55299999999983 -247.82480000000004 C 148.00399999999982 -245.73080000000004 135.36499999999984 -241.94280000000003 123.42199999999983 -238.15480000000005 C 112.40199999999983 -234.40080000000006 103.19599999999983 -230.36380000000005 97.14499999999983 -227.52080000000007 C 91.09999999999982 -224.65980000000008 88.19199999999982 -222.95280000000005 89.95899999999983 -223.35880000000006 C 83.58399999999983 -220.53680000000006 79.29499999999983 -218.68680000000006 76.34799999999983 -217.49680000000006 C 73.46999999999983 -216.36780000000007 71.63099999999983 -215.58680000000007 70.66699999999983 -215.29180000000005 C 68.68699999999983 -214.65280000000004 69.64599999999983 -215.44680000000005 67.85499999999983 -214.73380000000006 C 65.71299999999984 -213.51180000000005 62.18499999999983 -211.28380000000007 57.62999999999983 -208.67180000000005 C 55.43499999999983 -207.25980000000004 53.01199999999983 -205.70080000000004 50.427999999999834 -204.03880000000004 C 47.926999999999836 -202.28680000000003 45.27399999999983 -200.42280000000002 42.557999999999836 -198.46980000000005 C 31.818999999999836 -190.51080000000005 20.828999999999837 -180.39080000000004 12.920999999999836 -172.02280000000005 L 11.677999999999836 -171.75780000000006 C 3.534999999999835 -162.91980000000007 -4.038000000000164 -153.73680000000007 -11.314000000000165 -144.44280000000006 C -5.460000000000165 -151.41880000000006 -10.168000000000166 -144.71580000000006 -9.820000000000165 -144.44680000000005 C -11.773000000000165 -142.13680000000005 -13.688000000000166 -139.80980000000005 -15.589000000000166 -137.47580000000005 C -9.816000000000166 -143.88980000000004 -3.832000000000166 -150.87980000000005 2.5079999999998357 -158.01280000000006 C 8.850999999999836 -165.13880000000006 15.469999999999835 -172.47580000000005 22.645999999999837 -179.43180000000007 C 29.808999999999838 -186.38780000000006 37.45899999999984 -193.01980000000006 45.56699999999984 -198.77580000000006 C 47.62799999999984 -200.17580000000007 49.63599999999984 -201.61080000000007 51.72099999999983 -202.91980000000007 C 53.84399999999983 -204.17480000000006 55.94999999999983 -205.41980000000007 58.03599999999983 -206.65180000000007 C 62.34699999999983 -208.90480000000008 66.59299999999983 -211.07780000000005 70.98499999999983 -212.67280000000005 C 65.87099999999982 -210.17280000000005 66.83099999999983 -210.43380000000005 67.76899999999983 -210.69180000000006 C 68.23999999999984 -210.81980000000004 68.70699999999984 -210.94680000000005 68.41899999999984 -210.72880000000006 C 68.27499999999984 -210.61980000000005 67.94199999999984 -210.42480000000006 67.32699999999984 -210.10080000000008 C 66.71399999999984 -209.77280000000007 65.85999999999984 -209.24380000000008 64.62699999999984 -208.55080000000007 C 62.55299999999984 -207.45980000000006 60.89199999999984 -206.58680000000007 59.554999999999836 -205.88280000000006 C 58.25299999999984 -205.12880000000007 57.265999999999835 -204.55680000000007 56.50499999999984 -204.11580000000006 C 54.97299999999984 -203.25080000000005 54.31699999999984 -202.95480000000006 53.83199999999984 -202.81580000000005 C 53.26699999999984 -202.39480000000006 52.58399999999984 -201.88580000000005 51.85299999999984 -201.34180000000006 C 51.14599999999984 -200.77380000000005 50.390999999999835 -200.16780000000006 49.65699999999984 -199.57780000000005 C 48.18699999999984 -198.40380000000005 46.80099999999984 -197.30080000000007 46.05099999999984 -196.66080000000005 C 45.29999999999984 -196.02080000000007 45.18499999999984 -195.84580000000005 46.25599999999984 -196.52680000000007 C 46.792999999999836 -196.86680000000007 47.62499999999984 -197.42180000000008 48.82499999999984 -198.23980000000006 C 49.423999999999836 -198.65080000000006 50.11499999999984 -199.12480000000005 50.90799999999984 -199.66880000000006 C 51.69399999999984 -200.22380000000007 52.59099999999984 -200.83580000000006 53.643999999999835 -201.46480000000005 C 53.65399999999983 -201.23980000000006 53.112999999999836 -200.76080000000005 52.18799999999983 -199.97580000000005 C 51.271999999999835 -199.17980000000006 49.93799999999983 -198.12180000000004 48.268999999999835 -196.85380000000004 C 47.432999999999836 -196.22380000000004 46.51799999999984 -195.53480000000005 45.53299999999984 -194.79280000000003 C 44.576999999999835 -194.02080000000004 43.55299999999984 -193.19380000000004 42.47099999999984 -192.31980000000001 C 41.38399999999984 -191.4538 40.23999999999984 -190.54180000000002 39.04599999999984 -189.5908 C 37.89199999999984 -188.5998 36.688999999999844 -187.56980000000001 35.447999999999844 -186.5058 C 34.218999999999845 -185.4328 32.90899999999984 -184.3688 31.643999999999846 -183.2088 C 30.380999999999844 -182.04579999999999 29.091999999999846 -180.8568 27.782999999999845 -179.6508 C 27.128999999999845 -179.0478 26.469999999999846 -178.4418 25.805999999999845 -177.83180000000002 C 25.163999999999845 -177.20180000000002 24.519999999999843 -176.5688 23.871999999999844 -175.93280000000001 C 22.767999999999844 -174.84580000000003 21.653999999999844 -173.74880000000002 20.539999999999843 -172.6528 C 19.972999999999843 -172.17680000000001 19.40499999999984 -171.70180000000002 18.831999999999844 -171.2278 C 18.006999999999845 -170.5378 17.179999999999843 -169.8448 16.347999999999843 -169.1488 C 15.518999999999842 -168.44979999999998 14.734999999999843 -167.69379999999998 13.919999999999842 -166.96179999999998 C 12.905999999999842 -166.03079999999997 11.870999999999842 -165.08079999999998 10.842999999999842 -164.1358 C 11.466999999999842 -164.85379999999998 12.097999999999843 -165.57979999999998 12.738999999999841 -166.31779999999998 C 14.54999999999984 -168.29279999999997 16.40199999999984 -170.3138 18.169999999999842 -172.24179999999998 C 21.807999999999844 -176.01979999999998 25.08799999999984 -179.4588 27.048999999999843 -181.3988 C 26.122999999999845 -180.5368 25.207999999999842 -179.69979999999998 24.334999999999845 -178.84279999999998 C 23.479999999999844 -177.97079999999997 22.632999999999846 -177.10779999999997 21.782999999999845 -176.24079999999998 C 20.095999999999844 -174.4988 18.368999999999843 -172.7728 16.645999999999844 -170.86479999999997 C 13.526999999999845 -167.52079999999998 10.095999999999844 -163.8438 5.872999999999845 -159.31679999999997 C 5.373999999999845 -158.81079999999997 4.874999999999845 -158.30579999999998 4.368999999999845 -157.79579999999999 C 4.854999999999845 -158.8738 5.327999999999845 -159.9628 5.836999999999845 -161.03179999999998 C -0.13800000000015444 -154.14879999999997 -3.329000000000155 -150.10679999999996 -5.013000000000154 -147.91879999999998 C -6.397000000000155 -146.1118 -6.700000000000155 -145.54879999999997 -6.5210000000001545 -145.57379999999998 C -7.769000000000155 -144.02779999999998 -9.013000000000154 -142.44879999999998 -10.249000000000155 -140.80479999999997 C -15.404000000000156 -134.37179999999998 -18.885000000000154 -129.57779999999997 -21.627000000000155 -125.86179999999997 C -23.984000000000155 -122.64379999999997 -25.770000000000156 -120.20579999999997 -27.359000000000155 -118.03579999999998 C -27.405000000000154 -117.98079999999997 -27.453000000000156 -117.92379999999999 -27.499000000000155 -117.86879999999998 C -28.253000000000156 -116.93579999999997 -29.058000000000156 -116.05579999999998 -29.820000000000157 -115.19579999999998 C -31.167000000000158 -115.19879999999998 -32.620000000000154 -116.11079999999998 -33.272000000000155 -116.57679999999998 C -32.571000000000154 -117.43279999999997 -31.879000000000154 -118.28579999999998 -31.219000000000154 -119.12879999999998 C -30.753000000000153 -119.72379999999998 -30.338000000000154 -120.30779999999999 -29.902000000000154 -120.88579999999999 C -29.459000000000152 -121.48879999999998 -29.021000000000154 -122.08279999999999 -28.591000000000154 -122.6668 C -27.685000000000155 -123.93079999999999 -26.812000000000154 -125.1468 -25.992000000000154 -126.2898 C -24.363000000000152 -128.5908 -22.947000000000152 -130.5908 -21.906000000000155 -132.0608 C -23.429000000000155 -130.0978 -24.934000000000154 -128.1588 -26.415000000000155 -126.2498 C -27.154000000000156 -125.2978 -27.888000000000154 -124.35379999999999 -28.614000000000154 -123.4198 C -28.969000000000154 -122.9688 -29.360000000000152 -122.45179999999999 -29.681000000000154 -122.0628 C -30.012000000000153 -121.65679999999999 -30.340000000000153 -121.2538 -30.667000000000154 -120.8528 C -31.817000000000153 -119.4548 -33.02100000000016 -118.0788 -34.24300000000015 -116.7228 C -34.76200000000015 -117.2928 -35.28100000000015 -117.86280000000001 -35.818000000000154 -118.4038 C -36.498000000000154 -119.1028 -37.21000000000016 -119.8578 -37.86500000000015 -120.5078 L -39.84100000000015 -122.4728 C -42.48600000000015 -125.08680000000001 -45.14700000000015 -127.6918 -47.858000000000146 -130.2618 C -53.26000000000015 -135.41379999999998 -58.82000000000015 -140.4488 -64.55400000000014 -145.3218 C -61.43600000000014 -142.3378 -58.41800000000014 -139.2788 -55.429000000000144 -136.2038 C -67.33000000000014 -147.5528 -78.15700000000015 -155.8988 -89.02200000000015 -162.7968 C -94.46000000000015 -166.2428 -99.91400000000014 -169.3258 -105.60300000000015 -172.15179999999998 C -111.29400000000015 -174.97179999999997 -117.22100000000015 -177.54379999999998 -123.67200000000015 -179.81579999999997 C -121.73300000000015 -179.67879999999997 -115.38100000000016 -177.61379999999997 -107.86000000000016 -173.97679999999997 C -100.32300000000015 -170.37179999999998 -91.71400000000015 -165.17879999999997 -84.41300000000015 -160.26779999999997 C -87.64100000000015 -162.99079999999998 -89.91900000000015 -164.65879999999996 -91.82500000000016 -165.90879999999996 C -93.74000000000017 -167.15179999999995 -95.27600000000015 -167.99179999999996 -97.15900000000016 -168.93579999999994 C -99.02700000000016 -169.89979999999994 -101.23700000000017 -170.97579999999994 -104.54200000000016 -172.62579999999994 C -107.84300000000016 -174.28079999999994 -112.26900000000016 -176.48379999999995 -118.82600000000016 -179.29679999999993 C -122.30700000000016 -180.91679999999994 -123.16000000000017 -181.49679999999992 -121.27600000000017 -181.14379999999994 C -124.88300000000017 -182.39979999999994 -128.60100000000017 -183.41279999999995 -132.33400000000017 -184.32279999999994 C -134.23000000000016 -184.70479999999995 -136.08800000000016 -185.17779999999993 -138.00700000000018 -185.46279999999993 L -140.86300000000017 -185.93979999999993 L -143.72300000000018 -186.28979999999993 C -144.9270000000002 -186.56079999999992 -146.12700000000018 -186.80979999999994 -147.32400000000018 -187.03279999999992 L -147.1820000000002 -187.09679999999992 C -147.46000000000018 -187.1177999999999 -147.7200000000002 -187.13979999999992 -147.9880000000002 -187.16179999999991 C -150.1570000000002 -187.55079999999992 -152.3150000000002 -187.8637999999999 -154.4570000000002 -188.0997999999999 C -158.6670000000002 -188.5817999999999 -162.82400000000018 -188.7047999999999 -166.9040000000002 -188.6487999999999 C -168.2120000000002 -188.6017999999999 -169.5110000000002 -188.5327999999999 -170.8040000000002 -188.4497999999999 C -171.8650000000002 -188.5367999999999 -172.9270000000002 -188.6247999999999 -173.9800000000002 -188.7117999999999 C -175.5840000000002 -188.7547999999999 -177.17500000000018 -188.7977999999999 -178.7440000000002 -188.83979999999988 C -181.8810000000002 -188.99379999999988 -184.9220000000002 -188.79679999999988 -187.7900000000002 -188.7157999999999 C -193.5190000000002 -188.4067999999999 -198.53200000000018 -187.80979999999988 -202.15700000000018 -187.0607999999999 C -203.5400000000002 -186.89779999999988 -204.88300000000018 -186.8067999999999 -206.24400000000017 -186.63779999999988 C -207.61600000000018 -186.4557999999999 -208.97400000000016 -186.2757999999999 -210.33400000000017 -186.09579999999988 C -213.03500000000017 -185.63779999999988 -215.75400000000016 -185.1757999999999 -218.53000000000017 -184.4497999999999 C -224.07900000000018 -183.0337999999999 -229.99400000000017 -180.8897999999999 -236.46700000000018 -176.9727999999999 L -234.5590000000002 -179.5087999999999 C -230.2560000000002 -181.6117999999999 -226.7070000000002 -183.0577999999999 -223.77700000000019 -184.0747999999999 C -222.3030000000002 -184.5637999999999 -221.0170000000002 -185.0317999999999 -219.8440000000002 -185.3657999999999 C -218.6670000000002 -185.6867999999999 -217.6370000000002 -185.9677999999999 -216.72300000000018 -186.2177999999999 C -214.8980000000002 -186.7217999999999 -213.4870000000002 -186.9237999999999 -212.33400000000017 -187.1657999999999 C -211.17800000000017 -187.4017999999999 -210.23800000000017 -187.5297999999999 -209.27900000000017 -187.63879999999992 C -208.32500000000016 -187.76579999999993 -207.35600000000017 -187.89579999999992 -206.12500000000017 -188.06079999999992 C -204.92700000000016 -188.1897999999999 -203.47400000000016 -188.34679999999992 -201.52600000000018 -188.55679999999992 C -200.55500000000018 -188.67379999999991 -199.46100000000018 -188.80479999999991 -198.2130000000002 -188.95379999999992 C -196.9630000000002 -189.08679999999993 -195.55000000000018 -189.1607999999999 -193.9570000000002 -189.2917999999999 C -192.3610000000002 -189.3877999999999 -190.5900000000002 -189.6117999999999 -188.5880000000002 -189.6527999999999 C -186.58600000000018 -189.7087999999999 -184.3680000000002 -189.7707999999999 -181.9050000000002 -189.8397999999999 C -183.7220000000002 -189.92379999999991 -185.7490000000002 -189.9947999999999 -187.9660000000002 -190.0537999999999 C -188.5200000000002 -190.06779999999992 -189.08700000000022 -190.0807999999999 -189.66400000000021 -190.0957999999999 C -190.2400000000002 -190.07879999999992 -190.82700000000023 -190.06179999999992 -191.4250000000002 -190.04479999999992 C -192.6220000000002 -190.00179999999992 -193.8630000000002 -189.95779999999993 -195.1460000000002 -189.91079999999994 C -197.7210000000002 -189.86979999999994 -200.4300000000002 -189.54879999999994 -203.29700000000022 -189.27079999999995 C -204.73200000000023 -189.12379999999996 -206.18600000000023 -189.00579999999997 -207.75000000000023 -188.72779999999995 C -209.29300000000023 -188.47179999999994 -210.88900000000024 -188.26979999999995 -212.47700000000023 -187.89279999999994 C -225.28400000000022 -185.30979999999994 -239.47200000000024 -179.25079999999994 -252.19300000000024 -169.87779999999992 C -258.55600000000027 -165.20379999999992 -264.5940000000002 -159.7807999999999 -270.06600000000026 -153.78679999999991 C -275.50400000000025 -147.7617999999999 -280.38100000000026 -141.1787999999999 -284.52500000000026 -134.2677999999999 C -292.77300000000025 -120.42579999999991 -297.94400000000024 -105.2047999999999 -299.4950000000003 -91.13779999999991 C -299.6070000000003 -89.7107999999999 -299.7500000000003 -88.25979999999991 -299.84200000000027 -86.77779999999991 C -299.8940000000003 -85.29179999999991 -299.9470000000003 -83.77879999999992 -300.00100000000026 -82.24379999999991 C -299.98000000000025 -80.7047999999999 -299.9570000000003 -79.1417999999999 -299.9350000000003 -77.5577999999999 C -299.8550000000003 -75.9967999999999 -299.7060000000003 -74.4447999999999 -299.5930000000003 -72.8597999999999 C -299.4710000000003 -71.27879999999989 -299.3470000000003 -69.67979999999989 -299.2220000000003 -68.0657999999999 C -298.9900000000003 -66.4747999999999 -298.75500000000034 -64.8677999999999 -298.5180000000003 -63.248799999999896 C -298.26700000000034 -61.633799999999894 -298.07500000000033 -59.9887999999999 -297.7680000000003 -58.3667999999999 C -297.4290000000003 -56.7537999999999 -297.0880000000003 -55.129799999999896 -296.7450000000003 -53.4997999999999 C -296.7080000000003 -53.327799999999904 -296.6630000000003 -53.1567999999999 -296.62600000000026 -52.9837999999999 C -296.58500000000026 -52.202799999999904 -296.53900000000027 -51.4197999999999 -296.4880000000003 -50.628799999999906 C -296.3680000000003 -49.36879999999991 -296.24600000000027 -48.0937999999999 -296.1230000000003 -46.8067999999999 C -295.91700000000026 -45.5267999999999 -295.7090000000003 -44.2347999999999 -295.49900000000025 -42.9317999999999 C -295.2790000000002 -41.6307999999999 -295.05700000000024 -40.3197999999999 -294.83300000000025 -38.9987999999999 C -294.61600000000027 -37.6767999999999 -294.20900000000023 -36.4027999999999 -293.8990000000002 -35.092799999999905 C -293.2270000000002 -32.48779999999991 -292.6010000000002 -29.834799999999905 -291.6540000000002 -27.304799999999904 C -288.2720000000002 -16.996799999999904 -283.37400000000025 -7.294799999999903 -278.3870000000002 1.267200000000095 C -273.4120000000002 9.867200000000095 -268.28300000000024 17.304200000000094 -264.3270000000002 23.562200000000097 C -262.2700000000002 26.397200000000097 -260.3590000000002 28.929200000000098 -258.5700000000002 31.237200000000097 L -259.7650000000002 29.9042000000001 C -256.74000000000024 35.044200000000096 -253.64700000000022 40.1272000000001 -250.53300000000021 45.1752000000001 L -245.8460000000002 52.7242000000001 C -244.2750000000002 55.2332000000001 -242.7490000000002 57.7242000000001 -241.0420000000002 60.2832000000001 C -234.4520000000002 70.5042000000001 -227.1890000000002 80.2722000000001 -219.3030000000002 89.4682000000001 C -198.94900000000018 112.6862000000001 -175.0730000000002 132.92720000000008 -151.2080000000002 149.68220000000008 C -145.2390000000002 153.8752000000001 -139.2510000000002 157.83020000000008 -133.3260000000002 161.6002000000001 C -130.3620000000002 163.4822000000001 -127.38400000000019 165.2672000000001 -124.4640000000002 167.0672000000001 C -121.5910000000002 168.8042000000001 -118.7540000000002 170.5202000000001 -115.95400000000019 172.2122000000001 C -104.7970000000002 179.0092000000001 -94.32500000000019 185.5932000000001 -84.6660000000002 191.6282000000001 L -74.6220000000002 199.1512000000001 C -64.4740000000002 205.2142000000001 -51.056000000000196 213.9152000000001 -36.1120000000002 223.6992000000001 C -28.6200000000002 228.5792000000001 -20.7440000000002 233.7092000000001 -12.729000000000202 238.9292000000001 C -11.723000000000201 239.5782000000001 -10.715000000000202 240.2292000000001 -9.706000000000202 240.8802000000001 C -9.231000000000202 241.19920000000008 -8.641000000000203 241.5432000000001 -8.055000000000202 241.88420000000008 L -6.309000000000202 242.90220000000008 C -5.724000000000202 243.2372000000001 -5.1460000000002015 243.5832000000001 -4.5530000000002016 243.90720000000007 L -2.700000000000202 244.77120000000008 C -1.4530000000002017 245.32620000000009 -0.2540000000002016 245.97120000000007 1.066999999999798 246.3812000000001 C 2.369999999999798 246.82020000000009 3.644999999999798 247.3352000000001 4.973999999999798 247.6932000000001 L 8.991999999999798 248.6712000000001 L 13.0769999999998 249.26120000000012 C 14.4389999999998 249.4262000000001 15.8109999999998 249.4252000000001 17.1739999999998 249.5042000000001 C 22.6309999999998 249.60720000000012 27.9669999999998 248.7902000000001 32.9449999999998 247.41020000000012 C 34.1749999999998 247.03020000000012 35.4369999999998 246.72220000000013 36.6229999999998 246.2782000000001 C 37.8119999999998 245.83920000000012 38.995999999999796 245.4022000000001 40.1739999999998 244.9662000000001 C 42.458999999999804 243.9752000000001 44.7309999999998 243.0062000000001 46.8549999999998 241.8682000000001 C 51.1479999999998 239.66420000000008 55.1259999999998 237.2202000000001 58.7729999999998 234.64620000000008 C 62.4559999999998 232.10920000000007 65.8179999999998 229.44920000000008 68.9469999999998 226.82920000000007 C 71.45399999999981 224.71420000000006 73.78999999999981 222.61820000000006 75.9789999999998 220.56820000000008 L 75.9709999999998 220.58120000000008 C 75.9709999999998 220.58120000000008 87.1249999999998 212.18020000000007 89.0629999999998 210.80520000000007 C 91.0009999999998 209.43020000000007 100.0629999999998 199.55520000000007 102.5629999999998 196.49220000000008 C 103.9409999999998 194.8042000000001 104.8029999999998 192.7982000000001 105.3029999999998 191.3332000000001 C 106.74199999999979 190.09220000000008 108.1719999999998 188.8472000000001 109.5829999999998 187.5912000000001 C 109.0169999999998 188.2332000000001 108.5399999999998 188.7852000000001 108.2029999999998 189.2052000000001 C 106.7359999999998 190.9982000000001 107.5509999999998 190.4962000000001 112.5889999999998 185.7502000000001 C 114.77199999999979 183.46220000000008 116.6259999999998 181.4482000000001 118.1729999999998 179.7222000000001 C 124.3959999999998 173.7622000000001 129.8919999999998 167.4302000000001 134.8889999999998 161.0832000000001 C 138.3699999999998 156.6842000000001 141.65799999999982 152.28920000000008 144.86199999999982 147.9752000000001 C 149.09499999999983 143.06920000000008 153.19199999999984 138.3522000000001 156.9249999999998 134.1842000000001 C 160.87899999999982 129.7682000000001 164.3889999999998 125.85020000000009 167.14099999999982 122.7772000000001 C 175.30999999999983 111.7952000000001 180.9369999999998 104.06820000000009 185.6749999999998 97.2422000000001 C 187.83199999999982 94.1602000000001 189.79599999999982 91.2552000000001 191.6979999999998 88.3022000000001 C 191.8739999999998 88.0402000000001 192.05199999999982 87.7772000000001 192.2209999999998 87.52120000000009 C 196.1189999999998 81.70820000000009 198.78899999999982 77.4122000000001 197.6169999999998 78.56420000000008 C 197.9219999999998 78.03420000000008 198.2239999999998 77.51220000000008 198.5329999999998 76.96520000000008 C 197.9969999999998 77.76020000000008 197.4989999999998 78.50520000000009 197.03099999999978 79.21320000000009 C 196.89899999999977 79.36820000000009 196.76099999999977 79.53220000000009 196.59699999999978 79.73420000000009 C 193.74599999999978 83.74820000000008 191.67199999999977 86.41220000000008 190.18599999999978 88.13120000000009 C 190.2359999999998 88.05320000000009 190.28499999999977 87.9742000000001 190.33399999999978 87.89620000000009 C 197.87699999999978 77.1052000000001 204.53699999999978 67.3612000000001 210.5269999999998 58.40820000000009 C 211.03699999999978 57.64720000000009 211.5349999999998 56.898200000000095 212.0339999999998 56.14920000000009 C 213.0639999999998 55.19520000000009 214.0629999999998 54.25420000000009 214.96599999999978 53.38120000000009 C 212.9629999999998 56.75420000000009 210.3189999999998 61.01320000000009 207.9379999999998 64.79420000000009 C 204.3989999999998 70.47420000000008 201.4499999999998 75.0632000000001 202.5639999999998 74.14020000000009 C 207.0609999999998 66.4182000000001 211.39499999999978 59.72220000000009 216.0459999999998 52.32320000000009 C 216.71699999999979 51.654200000000095 217.3029999999998 51.048200000000094 217.7659999999998 50.535200000000096 C 217.7659999999998 50.535200000000096 217.7669999999998 50.5342000000001 217.7679999999998 50.53320000000009 C 214.3689999999998 55.71420000000009 210.8019999999998 61.18020000000009 211.3209999999998 61.5252000000001 C 220.3839999999998 47.920200000000094 229.7209999999998 34.3822000000001 238.90099999999978 20.6642000000001 C 247.07899999999978 9.3612000000001 254.8619999999998 -2.299799999999898 262.0719999999998 -13.837799999999902 C 269.2899999999998 -25.373799999999903 275.91599999999977 -36.7867999999999 281.9759999999998 -47.5297999999999 C 279.3719999999998 -42.6887999999999 279.10699999999974 -41.821799999999904 278.4539999999998 -40.1137999999999 C 277.77899999999977 -38.4217999999999 276.6489999999998 -35.919799999999896 271.7879999999998 -28.1767999999999 C 273.1239999999998 -30.6127999999999 272.1049999999998 -29.055799999999902 273.42799999999977 -31.477799999999903 C 268.1389999999998 -22.4147999999999 264.58499999999975 -16.7957999999999 262.1559999999998 -12.799799999999902 C 259.71399999999977 -8.813799999999901 258.30599999999976 -6.515799999999902 257.02499999999975 -4.299799999999902 C 254.64699999999976 -0.32679999999990184 252.62499999999974 3.353200000000098 244.51099999999974 15.441200000000098 C 248.29599999999974 9.815200000000097 252.28099999999975 3.808200000000099 256.31999999999977 -2.431799999999903 C 261.29599999999976 -10.186799999999902 266.3529999999998 -18.281799999999905 271.14799999999974 -26.432799999999904 C 275.9059999999997 -34.6087999999999 280.48699999999974 -42.7747999999999 284.5169999999997 -50.6497999999999 C 285.5629999999997 -52.5947999999999 286.49899999999974 -54.565799999999896 287.4569999999997 -56.4767999999999 C 287.9329999999997 -57.434799999999896 288.4039999999997 -58.3827999999999 288.8699999999997 -59.3217999999999 C 289.3349999999997 -60.2687999999999 289.8099999999997 -61.154799999999895 290.23499999999973 -62.1777999999999 C 291.10399999999976 -64.1617999999999 291.9539999999997 -66.0987999999999 292.77999999999975 -67.9847999999999 C 292.98599999999976 -68.45679999999989 293.18999999999977 -68.92479999999989 293.3939999999997 -69.3897999999999 C 293.5649999999997 -69.8687999999999 293.7339999999997 -70.34379999999989 293.9019999999997 -70.8157999999999 C 294.2359999999997 -71.7597999999999 294.5649999999997 -72.6907999999999 294.8889999999997 -73.6057999999999 C 294.09699999999975 -72.0767999999999 294.1879999999997 -72.8137999999999 294.7959999999997 -74.8967999999999 C 294.9529999999997 -75.4157999999999 295.1369999999997 -76.0217999999999 295.34299999999973 -76.6987999999999 C 295.55899999999974 -77.37279999999991 295.79899999999975 -78.1177999999999 295.97699999999975 -78.9457999999999 C 296.3819999999997 -80.5847999999999 296.84499999999974 -82.45879999999991 297.33599999999973 -84.44979999999991 C 299.1589999999997 -92.44179999999992 300.28299999999973 -102.56279999999991 299.84999999999974 -106.89679999999991 z M 258.472 -176.1558 C 258.53799999999995 -176.0168 258.611 -175.8698 258.68399999999997 -175.7228 C 258.445 -176.0988 258.39 -176.2238 258.472 -176.1558 z M -22.032 -89.7078 C -21.996 -89.5968 -21.953 -89.4898 -21.918 -89.37780000000001 C -21.31 -87.69980000000001 -20.967 -85.90880000000001 -20.566 -84.14580000000001 C -20.369999999999997 -83.26280000000001 -20.308999999999997 -82.33980000000001 -20.179 -81.4368 C -20.070999999999998 -80.5288 -19.927999999999997 -79.6258 -19.944 -78.69980000000001 L -19.897 -75.9368 C -19.906 -75.0158 -20.037 -74.0968 -20.108999999999998 -73.1768 C -20.171999999999997 -71.9008 -20.424 -70.6568 -20.691999999999997 -69.4158 C -20.855999999999998 -69.8498 -21.083999999999996 -70.3558 -21.321999999999996 -70.8518 C -20.736999999999995 -74.5508 -20.755999999999997 -78.18679999999999 -21.184999999999995 -81.3308 C -21.402999999999995 -83.46679999999999 -21.941999999999997 -85.3428 -22.350999999999996 -87.0098 C -22.521999999999995 -87.5598 -22.692999999999994 -88.0718 -22.861999999999995 -88.5638 C -22.584999999999994 -88.9378 -22.308999999999994 -89.3258 -22.031999999999996 -89.7078 z M -25.356 -54.3238 C -25.246000000000002 -54.6438 -25.142000000000003 -54.9758 -25.043000000000003 -55.3168 C -24.622000000000003 -56.0768 -24.208000000000002 -56.8278 -23.874000000000002 -57.4488 C -23.250000000000004 -58.6068 -22.267000000000003 -61.3388 -21.517000000000003 -63.8538 C -21.406000000000002 -64.0518 -21.205000000000002 -64.5308 -20.870000000000005 -65.4378 C -20.704000000000004 -65.9318 -20.445000000000004 -66.5248 -20.249000000000006 -67.2948 C -20.074000000000005 -68.0728 -19.867000000000004 -68.9938 -19.624000000000006 -70.0748 C -19.340000000000007 -71.1498 -19.250000000000007 -72.4288 -19.106000000000005 -73.88579999999999 C -18.904000000000003 -75.34279999999998 -18.968000000000004 -76.98679999999999 -19.008000000000006 -78.83279999999999 C -18.944000000000006 -77.9738 -18.876000000000005 -77.05579999999999 -18.804000000000006 -76.08479999999999 C -18.731000000000005 -75.11079999999998 -18.846000000000007 -74.07979999999999 -18.878000000000007 -72.99579999999999 C -18.90800000000001 -72.45379999999999 -18.94000000000001 -71.8988 -18.971000000000007 -71.33279999999999 C -19.03600000000001 -70.77179999999998 -19.145000000000007 -70.2058 -19.238000000000007 -69.62379999999999 C -19.339000000000006 -69.04279999999999 -19.442000000000007 -68.45179999999999 -19.547000000000008 -67.84979999999999 C -19.64700000000001 -67.24479999999998 -19.76300000000001 -66.6338 -19.959000000000007 -66.04079999999999 C -20.311000000000007 -64.8398 -20.678000000000008 -63.59579999999999 -21.084000000000007 -62.33179999999999 C -21.602000000000007 -61.125799999999984 -22.133000000000006 -59.890799999999984 -22.675000000000008 -58.627799999999986 C -22.921000000000006 -58.012799999999984 -23.309000000000008 -57.329799999999985 -23.674000000000007 -56.658799999999985 C -24.045000000000005 -55.994799999999984 -24.440000000000005 -55.38679999999999 -24.836000000000006 -54.750799999999984 C -25.082000000000004 -54.38379999999999 -25.339000000000006 -54.02679999999999 -25.593000000000007 -53.667799999999986 C -25.517000000000007 -53.88879999999998 -25.430000000000007 -54.09279999999998 -25.35600000000001 -54.323799999999984 z M -40.772 -123.3198 C -39.344 -121.8878 -37.785 -120.3588 -36.12 -118.6078 C -35.477999999999994 -117.9598 -34.869 -117.3108 -34.282 -116.67779999999999 C -34.339999999999996 -116.6138 -34.397 -116.5478 -34.455 -116.48379999999999 C -34.885999999999996 -116.94479999999999 -35.315 -117.3958 -35.741 -117.83679999999998 C -36.616 -118.71979999999998 -37.507 -119.65479999999998 -38.29 -120.41179999999999 C -39.083999999999996 -121.18879999999999 -39.848 -121.93679999999999 -40.577 -122.65179999999998 C -42.047 -124.07179999999998 -43.376 -125.35579999999997 -44.521 -126.46179999999998 C -45.606 -127.97879999999998 -43.6 -126.12279999999998 -40.772 -123.31979999999999 z M -54.68 -132.3828 C -51.753 -129.7878 -48.622 -126.9548 -45.743 -124.2968 C -42.843 -121.6228 -40.163000000000004 -119.15180000000001 -38.152 -117.2968 C -37.351 -116.4758 -36.61 -115.68780000000001 -35.896 -114.91380000000001 C -36.378 -114.39280000000001 -36.858000000000004 -113.87480000000001 -37.341 -113.36380000000001 C -37.984 -114.07880000000002 -38.623000000000005 -114.77380000000001 -39.251 -115.41180000000001 C -40.095 -116.29380000000002 -40.894 -117.13280000000002 -41.61 -117.84480000000002 C -43.048 -119.30280000000002 -44.228 -120.50280000000002 -44.98 -121.30080000000002 C -46.209999999999994 -122.61280000000002 -46.272 -122.85080000000002 -44.443 -121.36680000000003 C -46.254 -122.97980000000003 -49.248 -125.84780000000002 -52.626 -129.04380000000003 C -57.224 -133.41480000000004 -62.549 -138.36080000000004 -66.235 -141.76880000000003 C -65.682 -141.70680000000002 -60.55 -137.56180000000003 -54.68 -132.38280000000003 z M -66.164 -136.4598 C -62.501000000000005 -133.2508 -59.313 -130.3778 -56.208 -127.5368 C -53.501999999999995 -125.0648 -50.858 -122.5928 -48.072 -119.9118 C -52.051 -123.4878 -55.703 -126.4328 -59.657000000000004 -129.5088 C -63.663000000000004 -133.71880000000002 -67.828 -137.7458 -72.116 -141.6158 C -69.976 -139.7898 -68.011 -138.0788 -66.164 -136.4598 z M -51.794 -90.1668 C -52.08 -89.8018 -52.366 -89.4348 -52.656 -89.0578 C -55.51 -85.3048 -58.748999999999995 -81.0698 -61.964 -75.0538 C -64.282 -71.5038 -66.073 -67.2628 -67.298 -62.87479999999999 C -67.083 -63.97579999999999 -66.749 -65.04979999999999 -66.417 -66.09679999999999 C -66.254 -66.6188 -66.09400000000001 -67.13479999999998 -65.935 -67.64379999999998 L -65.697 -68.40179999999998 L -65.402 -69.10779999999998 C -65.01 -70.04179999999998 -64.629 -70.95279999999998 -64.256 -71.84179999999998 C -63.904 -72.74879999999997 -63.426 -73.51479999999998 -63.034 -74.32679999999998 C -62.618 -75.11779999999997 -62.239 -75.91579999999998 -61.821999999999996 -76.64679999999997 C -61.394999999999996 -77.36679999999997 -60.977 -78.06779999999998 -60.568999999999996 -78.75379999999997 C -59.778999999999996 -80.15379999999998 -58.934999999999995 -81.37879999999997 -58.151999999999994 -82.57679999999996 C -55.98199999999999 -85.80879999999996 -54.01899999999999 -88.53879999999997 -52.190999999999995 -90.97679999999997 C -52.07899999999999 -90.75179999999997 -51.967999999999996 -90.52779999999997 -51.861999999999995 -90.30979999999997 C -51.836999999999996 -90.26079999999996 -51.81699999999999 -90.21579999999997 -51.794 -90.16679999999997 z M -121.067 -178.5298 C -118.70899999999999 -177.5778 -117.89999999999999 -177.0048 -116.823 -176.3838 C -115.755 -175.7478 -114.469 -174.96980000000002 -111.28899999999999 -173.36880000000002 C -110.49699999999999 -172.96380000000002 -109.591 -172.49980000000002 -108.54399999999998 -171.96480000000003 C -107.50499999999998 -171.41880000000003 -106.32699999999998 -170.79880000000003 -104.98399999999998 -170.0928 C -103.63699999999999 -169.3938 -102.16599999999998 -168.5498 -100.47999999999998 -167.64180000000002 C -98.83099999999997 -166.6818 -96.95899999999997 -165.66580000000002 -94.94599999999997 -164.43380000000002 C -91.82399999999997 -162.0158 -88.17499999999997 -158.9968 -84.75299999999997 -156.01080000000002 C -81.32099999999997 -153.0328 -78.18099999999997 -150.01180000000002 -75.93099999999997 -147.7178 C -73.70899999999997 -145.3898 -72.37699999999997 -143.7888 -72.65099999999997 -143.5278 C -72.88299999999997 -143.3058 -74.28299999999997 -144.1108 -77.34499999999997 -146.2158 C -80.99299999999997 -149.3418 -84.70499999999997 -152.3808 -88.47399999999998 -155.3278 C -94.93899999999998 -160.5678 -97.64399999999998 -162.69979999999998 -99.08399999999997 -164.0348 C -100.53099999999998 -165.35979999999998 -100.83999999999997 -165.84779999999998 -102.67099999999998 -167.4588 C -109.38599999999998 -172.2628 -116.19899999999998 -176.1728 -123.01399999999998 -179.2788 C -122.26899999999998 -179.0008 -121.62799999999999 -178.7448 -121.06699999999998 -178.5298 z M -260.456 -132.7128 C -259.88 -133.5308 -259.192 -134.27179999999998 -258.53900000000004 -135.0718 C -257.19300000000004 -136.63479999999998 -255.83100000000005 -138.3108 -254.20500000000004 -139.9438 C -252.54100000000005 -141.5388 -250.72200000000004 -143.1968 -248.68500000000003 -144.9318 L -250.08900000000003 -145.1808 C -248.41700000000003 -146.8528 -246.77900000000002 -148.2328 -245.36 -149.5708 C -244.64100000000002 -150.2318 -243.959 -150.85979999999998 -243.30900000000003 -151.4578 C -242.62700000000004 -152.0178 -241.979 -152.5478 -241.36300000000003 -153.0538 C -239.32900000000004 -154.7048 -237.69200000000004 -156.14079999999998 -236.19800000000004 -157.2948 C -236.83600000000004 -156.6578 -237.47600000000003 -156.0198 -238.12200000000004 -155.3758 C -238.80500000000004 -154.67079999999999 -239.49400000000006 -153.9608 -240.18600000000004 -153.2458 C -245.72900000000004 -147.5298 -251.77100000000004 -141.5188 -258.20400000000006 -134.7268 C -259.3690000000001 -133.4898 -260.55300000000005 -132.2158 -261.7440000000001 -130.9228 C -261.31700000000006 -131.5178 -260.8900000000001 -132.11079999999998 -260.4560000000001 -132.7128 z M -34.388 199.2422 C -33.275 199.7972 -32.162 200.3512 -31.041999999999998 200.9112 C -31.744999999999997 200.62120000000002 -32.419 200.33520000000001 -33.08 200.05020000000002 C -33.516 199.7802 -33.952999999999996 199.50920000000002 -34.388 199.24220000000003 z M 26.956 233.1372 C 24.206 233.73520000000002 21.557 233.98520000000002 19.158 233.9872 C 15.766000000000002 233.5272 12.350000000000001 232.6552 9.083000000000002 231.4192 C 8.536000000000001 231.2072 8.002000000000002 230.9722 7.464000000000002 230.74419999999998 L 7.913000000000002 230.8242 C 8.829000000000002 231.0052 9.753000000000002 231.11919999999998 10.679000000000002 231.22019999999998 C 11.605000000000002 231.32319999999999 12.532000000000002 231.44819999999999 13.460000000000003 231.5262 C 20.896 232.0972 28.400000000000002 231.55519999999999 35.616 230.01819999999998 C 34.78 230.4192 29.619999999999997 231.39819999999997 26.466 231.75719999999998 C 29.628 231.4722 32.736000000000004 230.9982 35.786 230.36819999999997 C 32.894 231.54019999999997 29.882 232.52419999999998 26.956000000000003 233.13719999999998 z M 176.384 80.4772 C 176.38 80.4772 176.37099999999998 80.4832 176.369 80.48219999999999 C 176.456 80.33219999999999 176.62 80.0962 176.819 79.82319999999999 C 176.676 80.03819999999999 176.53 80.25719999999998 176.384 80.47719999999998 z M 222.986 14.3352 C 222.98499999999999 14.3382 222.98399999999998 14.340200000000001 222.983 14.3432 C 221.737 16.4892 220.511 18.6082 219.33700000000002 20.650199999999998 C 217.876 22.804199999999998 216.4 24.9792 214.90800000000002 27.1742 C 215.02800000000002 26.9412 215.139 26.7212 215.26800000000003 26.4742 C 217.39200000000002 22.4212 220.66400000000002 16.5762 225.07500000000002 9.3022 C 225.388 8.828199999999999 225.567 8.5992 225.703 8.447199999999999 C 224.609 10.716199999999999 223.64600000000002 12.7852 222.986 14.335199999999999 z M 247.389 -49.9008 C 244.322 -40.2598 240.604 -29.623799999999996 241.15800000000002 -29.014799999999997 C 239.77700000000002 -25.414799999999996 238.288 -21.869799999999998 236.84300000000002 -18.307799999999997 C 235.32200000000003 -14.783799999999996 233.85500000000002 -11.236799999999997 232.25400000000002 -7.761799999999997 C 230.56500000000003 -2.975799999999998 229.882 -0.885799999999997 229.729 0.2062000000000026 C 229.721 0.2572000000000026 229.71800000000002 0.2972000000000026 229.71200000000002 0.3432000000000026 C 228.877 2.0002000000000026 228.01000000000002 3.7362000000000024 227.17000000000002 5.439200000000003 C 224.865 9.291200000000003 222.79100000000003 12.649200000000004 220.984 15.466200000000002 C 216.154 23.023200000000003 213.238 26.769200000000005 213.013 26.1432 C 204.711 40.4162 208.4 34.803200000000004 211.708 29.8682 C 213.347 27.389200000000002 214.87 25.0672 214.753 25.494200000000003 C 214.63199999999998 25.918200000000002 212.884 29.099200000000003 207.85299999999998 37.5432 C 207.24499999999998 38.4552 206.64 39.3622 206.03499999999997 40.2712 C 202.51599999999996 45.4792 198.95399999999998 50.7802 195.35799999999998 56.2012 C 194.98299999999998 56.7682 194.60599999999997 57.3382 194.23 57.9062 C 191.78199999999998 61.5402 189.356 65.1182 186.953 68.62819999999999 C 185.91400000000002 69.8962 184.879 71.13419999999999 183.883 72.3012 C 182.82000000000002 73.5482 181.809 74.71419999999999 180.889 75.7572 C 184.83 69.8742 188.29600000000002 64.4812 190.418 60.9602 C 192.814 56.9742 193.461 55.3802 190.97400000000002 58.0512 C 184.73700000000002 67.3622 181.83700000000002 72.0442 179.16100000000003 76.2282 C 179.04800000000003 76.40220000000001 178.93600000000004 76.5762 178.82400000000004 76.7492 C 177.19000000000005 78.6572 175.39200000000005 80.7102 173.47000000000003 82.8672 C 168.35300000000004 88.6232 162.33400000000003 95.1292 156.33700000000002 101.78219999999999 C 153.33700000000002 105.10319999999999 150.34900000000002 108.47919999999999 147.47600000000003 111.79419999999999 C 146.04200000000003 113.4802 144.65300000000002 115.08019999999999 143.27000000000004 116.7682 C 141.87800000000004 118.4652 140.53300000000004 120.13119999999999 139.30200000000005 121.7722 C 134.31600000000006 128.3202 130.56700000000006 134.1932 128.33100000000005 138.3902 C 125.12200000000004 142.6712 120.51500000000004 149.2822 116.75500000000005 154.2852 C 113.00400000000005 159.3162 110.06500000000005 162.7632 110.59900000000005 161.4952 C 109.76500000000004 162.89020000000002 108.33000000000004 164.87720000000002 106.47300000000004 167.20420000000001 C 105.24500000000005 168.3342 103.99600000000004 169.45520000000002 102.69800000000004 170.59720000000002 C 99.68700000000004 173.2502 96.79800000000003 175.6922 94.26700000000004 177.7922 L 96.72400000000003 175.3872 C 93.52500000000003 178.28820000000002 90.28500000000003 181.1262 86.98800000000003 183.8752 C 85.37300000000003 185.0772 84.96700000000003 185.3162 84.95600000000003 185.2422 C 82.24300000000004 187.5152 78.36800000000004 190.5282 73.63100000000003 193.7822 C 68.89800000000002 197.0402 63.297000000000025 200.53619999999998 57.17000000000003 203.6882 C 51.05400000000003 206.8512 44.40100000000003 209.6532 37.72500000000003 211.54319999999998 C 34.38700000000003 212.46919999999997 31.05100000000003 213.2462 27.78900000000003 213.69019999999998 C 24.53000000000003 214.12819999999996 21.34700000000003 214.38619999999997 18.31900000000003 214.34619999999998 C 18.30200000000003 214.7352 24.39500000000003 215.0982 31.98200000000003 213.41619999999998 C 35.76500000000003 212.62019999999998 39.888000000000034 211.37419999999997 43.75200000000003 209.92319999999998 C 47.62300000000003 208.49519999999998 51.21800000000003 206.8182 54.05900000000003 205.48719999999997 C 55.65500000000003 204.88419999999996 61.91100000000003 201.81119999999999 66.37200000000003 199.26019999999997 C 68.60800000000003 198.00619999999998 70.42600000000003 196.97219999999996 71.06900000000003 196.68619999999996 C 71.71500000000003 196.40319999999997 71.21400000000003 196.92819999999995 68.74500000000003 198.66219999999996 C 65.20900000000003 200.89319999999995 61.744000000000035 202.89519999999996 58.329000000000036 204.71119999999996 C 54.91400000000004 206.52719999999997 51.552000000000035 208.17419999999996 48.186000000000035 209.58319999999998 C 41.47200000000004 212.44819999999999 34.77900000000004 214.52319999999997 27.889000000000035 215.62019999999998 C 24.445000000000036 216.13619999999997 20.955000000000034 216.40319999999997 17.410000000000036 216.35119999999998 C 16.526000000000035 216.31419999999997 15.637000000000036 216.2762 14.742000000000036 216.23819999999998 C 13.853000000000037 216.14919999999998 12.960000000000036 216.06019999999998 12.059000000000037 215.97019999999998 C 11.153000000000036 215.90919999999997 10.268000000000036 215.69519999999997 9.361000000000036 215.56519999999998 C 8.903000000000036 215.4842 8.467000000000036 215.42919999999998 7.985000000000037 215.32719999999998 C 7.496000000000037 215.21919999999997 7.005000000000036 215.1092 6.5110000000000365 214.99919999999997 C 4.537000000000036 214.55819999999997 2.5320000000000364 214.10719999999998 0.4870000000000365 213.64919999999998 C -1.5369999999999635 213.1032 -3.598999999999964 212.54619999999997 -5.704999999999964 211.9782 C -9.891999999999964 210.7472 -14.238999999999965 209.3972 -18.720999999999965 207.7112 C -16.821999999999964 208.4212 -14.950999999999965 209.22719999999998 -13.025999999999964 209.8612 L -7.271999999999965 211.8442 C -11.580999999999964 210.7142 -16.420999999999964 209.2512 -21.584999999999965 207.3342 C -24.077999999999964 205.7122 -26.566999999999965 204.1062 -29.039999999999964 202.5602 C -30.016999999999964 201.9482 -30.989999999999963 201.34120000000001 -31.957999999999963 200.74120000000002 C -29.617999999999963 201.76620000000003 -27.274999999999963 202.76620000000003 -25.022999999999964 203.67020000000002 C -17.907999999999966 206.58520000000001 -11.711999999999964 208.50020000000004 -9.919999999999964 208.4772 C -16.354999999999965 206.0462 -22.618999999999964 203.1652 -28.775999999999968 200.1022 C -35.69599999999997 197.5002 -42.64299999999997 194.0412 -49.102999999999966 190.4042 C -51.09199999999996 189.2362 -53.01599999999996 188.1172 -54.861999999999966 187.0502 C -61.17199999999997 183.2702 -66.85499999999996 179.58919999999998 -71.44299999999997 176.6782 C -68.79499999999997 178.5592 -66.11199999999997 180.3692 -63.42099999999997 182.1662 C -65.01399999999997 181.2692 -66.51099999999997 180.4292 -67.87199999999997 179.6722 C -74.49999999999997 175.0602 -77.23899999999998 172.7122 -73.82999999999997 173.9152 C -86.26099999999997 167.3302 -95.90499999999997 161.3812 -104.75299999999997 155.5262 C -105.36999999999998 155.01319999999998 -106.10299999999997 154.41619999999998 -106.98199999999997 153.7112 C -109.17499999999997 152.3542 -111.35099999999997 150.9742 -113.52099999999997 149.5862 C -115.36799999999997 148.31119999999999 -117.20999999999998 147.0292 -119.06099999999998 145.73219999999998 C -125.11499999999998 140.71419999999998 -122.20799999999998 142.54519999999997 -125.31199999999998 140.00519999999997 C -131.04799999999997 135.15919999999997 -130.516 135.87719999999996 -130.87199999999999 135.94719999999998 C -131.04 135.9722 -131.42399999999998 135.83119999999997 -132.874 134.69519999999997 C -134.315 133.55119999999997 -136.85399999999998 131.44419999999997 -141.19299999999998 127.41119999999997 C -143.69899999999998 124.91619999999996 -149.18399999999997 119.30519999999997 -146.541 121.52119999999996 C -156.28199999999998 112.08219999999997 -158.408 109.61319999999996 -160.637 107.53719999999997 C -161.827 106.41319999999997 -162.973 105.33119999999997 -165.062 103.35719999999998 C -167.17200000000003 101.44019999999998 -170.20600000000002 98.59519999999998 -175.29700000000003 94.32719999999998 C -166.31600000000003 102.17919999999998 -162.34700000000004 107.29119999999998 -162.562 107.61019999999998 C -162.816 108.02819999999998 -167.14600000000002 103.68019999999997 -176.45600000000002 95.65019999999998 C -182.955 89.91219999999998 -189.09300000000002 85.01419999999999 -194.66400000000002 80.34819999999999 C -200.24300000000002 75.69619999999999 -205.27900000000002 71.30319999999999 -209.73200000000003 66.8612 C -211.95100000000002 64.6362 -214.04300000000003 62.417199999999994 -215.973 60.1562 C -216.979 59.0532 -217.848 57.8762 -218.762 56.7452 C -219.652 55.6382 -220.584 54.410199999999996 -221.5 53.1992 C -225.144 48.346199999999996 -228.704 43.6832 -232.13400000000001 38.9302 C -233.86900000000003 36.9732 -235.604 35.0252 -237.33100000000002 33.0762 C -238.485 31.1872 -239.61700000000002 29.3182 -240.733 27.4602 C -234.597 34.9782 -229.208 41.0972 -228.702 40.6892 C -242.67 23.2062 -236.087 30.4562 -231.204 35.7332 C -238.89700000000002 26.401199999999996 -240.448 24.867199999999997 -241.108 24.6742 C -241.566 24.5302 -241.529 25.1242 -242.871 23.8832 C -244.92600000000002 20.4212 -246.922 16.998199999999997 -248.84900000000002 13.602199999999998 C -254.75900000000001 3.1861999999999977 -260.112 -7.003800000000004 -264.92600000000004 -17.4578 C -269.72200000000004 -27.9118 -274.01900000000006 -38.6328 -277.33000000000004 -50.1058 C -275.831 -42.708800000000004 -273.55000000000007 -35.3508 -271.064 -28.022800000000004 L -267.06100000000004 -21.331800000000005 C -263.627 -12.920800000000005 -264.52000000000004 -13.394800000000004 -266.91800000000006 -17.165800000000004 C -267.5180000000001 -18.107800000000005 -268.21100000000007 -19.255800000000004 -268.95500000000004 -20.519800000000004 C -269.65700000000004 -21.795800000000003 -270.39000000000004 -23.194800000000004 -271.134 -24.618800000000004 C -271.87100000000004 -26.044800000000002 -272.63800000000003 -27.490800000000004 -273.32 -28.885800000000003 C -273.581 -29.454800000000002 -273.834 -30.007800000000003 -274.082 -30.548800000000004 C -274.061 -30.618800000000004 -274.045 -30.701800000000002 -274.037 -30.809800000000003 C -274.25199999999995 -31.173800000000004 -274.73499999999996 -32.5238 -275.36199999999997 -34.3928 C -275.933 -36.2718 -276.41999999999996 -38.708800000000004 -277.02 -41.1798 C -277.47999999999996 -43.6688 -277.748 -46.2308 -278.07599999999996 -48.3648 C -278.25199999999995 -50.5178 -278.39099999999996 -52.2648 -278.40399999999994 -53.1128 C -278.43999999999994 -51.5018 -278.73799999999994 -53.0938 -278.90099999999995 -53.0798 C -278.977 -53.0708 -279.05999999999995 -52.6578 -278.9429999999999 -51.2258 C -278.87999999999994 -50.5118 -278.8379999999999 -49.5368 -278.6619999999999 -48.2458 C -278.4409999999999 -46.9628 -278.1649999999999 -45.3538 -277.8189999999999 -43.3438 C -278.0009999999999 -43.8268 -278.2299999999999 -44.7858 -278.4969999999999 -46.0918 C -278.6239999999999 -46.7468 -278.7679999999999 -47.4868 -278.9249999999999 -48.2958 C -279.0599999999999 -49.1088 -279.1229999999999 -50.0048 -279.2309999999999 -50.9488 C -279.60699999999986 -54.7328 -279.6919999999999 -59.3948 -279.2769999999999 -63.8398 C -278.5719999999999 -72.7658 -275.58499999999987 -80.61179999999999 -276.0889999999999 -80.3008 C -275.35899999999987 -80.9468 -272.5649999999999 -89.2498 -266.5229999999999 -98.47279999999999 C -260.6799999999999 -107.7678 -251.7199999999999 -117.84779999999999 -245.1839999999999 -124.3688 C -246.61899999999991 -124.5008 -252.4789999999999 -118.17779999999999 -257.9349999999999 -111.11479999999999 C -260.6709999999999 -107.58579999999999 -263.2789999999999 -103.86379999999998 -265.3839999999999 -100.73279999999998 C -267.4949999999999 -97.60379999999998 -269.1699999999999 -95.08579999999998 -270.2969999999999 -94.02679999999998 C -267.6189999999999 -99.22479999999999 -263.20699999999994 -105.88779999999998 -257.1969999999999 -113.10379999999998 C -251.2149999999999 -120.34179999999998 -243.6679999999999 -128.11979999999997 -235.58799999999988 -136.25279999999998 C -233.56399999999988 -138.29779999999997 -231.5189999999999 -140.36379999999997 -229.46199999999988 -142.44279999999998 C -227.35499999999988 -144.59179999999998 -225.44299999999987 -146.51379999999997 -223.40199999999987 -148.41979999999998 C -219.32799999999986 -152.20979999999997 -214.96499999999986 -155.67979999999997 -210.42199999999988 -158.69979999999998 C -201.34499999999989 -164.76879999999997 -191.52799999999988 -168.90779999999998 -182.36599999999987 -171.11379999999997 C -180.35699999999989 -171.45679999999996 -178.60899999999987 -171.81979999999996 -177.06099999999986 -171.96579999999997 C -176.82899999999987 -171.99479999999997 -176.61099999999988 -172.02179999999998 -176.38799999999986 -172.04879999999997 C -176.28999999999985 -172.04479999999998 -176.19699999999986 -172.03979999999999 -176.09799999999987 -172.03479999999996 C -175.74499999999986 -172.01879999999997 -175.38999999999987 -172.00279999999995 -175.03099999999986 -171.98679999999996 C -174.67399999999986 -171.94879999999995 -174.31299999999987 -171.91179999999997 -173.94799999999987 -171.87279999999996 C -173.34899999999988 -171.81179999999995 -172.72999999999988 -171.74879999999996 -172.10599999999985 -171.68479999999997 C -172.12999999999985 -171.68079999999998 -172.15299999999985 -171.67679999999996 -172.17699999999985 -171.67279999999997 C -173.16499999999985 -171.49979999999996 -174.15299999999985 -171.36479999999997 -174.92799999999986 -171.17179999999996 C -176.47899999999984 -170.78679999999997 -177.20899999999986 -170.49879999999996 -175.56399999999985 -170.51279999999997 C -179.21499999999986 -170.05179999999996 -182.45699999999985 -169.24079999999998 -185.43199999999985 -168.50979999999998 C -186.89999999999984 -168.0598 -188.31999999999985 -167.68779999999998 -189.65799999999984 -167.23379999999997 C -190.98699999999985 -166.75079999999997 -192.29099999999985 -166.37479999999996 -193.50199999999984 -165.86579999999998 C -198.39199999999983 -163.9758 -202.46299999999985 -162.00179999999997 -206.26499999999984 -159.77979999999997 C -210.06199999999984 -157.55079999999995 -213.62999999999985 -155.13879999999997 -217.40199999999984 -152.12979999999996 C -218.32999999999984 -151.35579999999996 -219.28199999999984 -150.56179999999995 -220.26599999999985 -149.74079999999995 C -221.21599999999984 -148.87579999999994 -222.19699999999986 -147.98179999999996 -223.21599999999984 -147.05279999999996 C -224.19699999999983 -146.07879999999997 -225.21499999999983 -145.06879999999995 -226.27699999999984 -144.01379999999997 C -227.38899999999984 -142.86279999999996 -228.54699999999985 -141.66379999999998 -229.75799999999984 -140.40979999999996 C -229.07499999999985 -141.08379999999997 -228.37799999999984 -141.77079999999995 -227.66799999999984 -142.47079999999997 C -226.95599999999985 -143.17679999999996 -226.22999999999985 -143.89979999999997 -225.54999999999984 -144.53779999999998 C -224.85799999999983 -145.20179999999996 -224.15399999999985 -145.87579999999997 -223.43999999999983 -146.56079999999997 C -222.71799999999982 -147.23479999999998 -221.95699999999982 -147.88079999999997 -221.20399999999984 -148.5578 C -218.16599999999983 -151.22879999999998 -214.85399999999984 -153.87679999999997 -211.26599999999985 -156.28379999999999 C -207.68999999999986 -158.7068 -203.88999999999984 -160.97779999999997 -199.90799999999984 -162.90879999999999 C -195.92399999999984 -164.83079999999998 -191.78399999999985 -166.45479999999998 -187.60199999999983 -167.7198 C -180.60199999999983 -169.8878 -173.48799999999983 -170.86679999999998 -166.88699999999983 -171.0638 C -160.90199999999982 -170.1948 -153.67899999999983 -168.81279999999998 -144.51399999999984 -165.6738 L -147.90999999999983 -167.1678 C -149.03999999999982 -167.6848 -150.21899999999982 -168.0498 -151.37499999999983 -168.5018 C -143.19999999999982 -166.5258 -137.79399999999984 -164.4018 -133.62799999999982 -162.4348 C -131.54699999999983 -161.4368 -129.71199999999982 -160.5978 -128.0719999999998 -159.5858 C -126.4199999999998 -158.59980000000002 -124.8179999999998 -157.7408 -123.2259999999998 -156.6738 C -121.6379999999998 -155.6078 -119.9749999999998 -154.4918 -118.0769999999998 -153.2188 C -117.1549999999998 -152.5428 -116.1759999999998 -151.82479999999998 -115.1209999999998 -151.0518 C -114.07199999999979 -150.27179999999998 -112.89999999999979 -149.50979999999998 -111.7279999999998 -148.5308 C -110.53099999999979 -147.5928 -109.2409999999998 -146.5818 -107.83999999999979 -145.4828 C -106.4479999999998 -144.3718 -105.01299999999979 -143.0758 -103.40499999999979 -141.7378 C -103.00499999999978 -141.4008 -102.59599999999979 -141.05679999999998 -102.1799999999998 -140.70579999999998 C -101.71799999999979 -140.30679999999998 -101.2459999999998 -139.8988 -100.76499999999979 -139.48379999999997 C -99.78299999999979 -138.62279999999998 -98.76199999999979 -137.75579999999997 -97.69799999999978 -136.87879999999998 C -95.56899999999978 -135.09879999999998 -93.27799999999978 -133.27779999999998 -90.80599999999978 -131.3338 C -85.23299999999978 -127.0208 -80.23699999999978 -123.2448 -76.00799999999978 -119.91579999999999 C -71.81299999999979 -116.6188 -68.33399999999978 -113.7798 -65.64699999999978 -111.49779999999998 C -64.95999999999978 -110.65179999999998 -64.29999999999978 -109.81479999999998 -63.71099999999978 -109.02679999999998 C -61.49399999999978 -106.12079999999997 -60.10599999999978 -103.96579999999997 -61.05899999999978 -104.82179999999998 L -62.67099999999978 -106.80079999999998 C -59.022999999999776 -102.31379999999999 -56.458999999999776 -98.54179999999998 -54.568999999999775 -95.35079999999998 C -56.67799999999978 -92.63379999999998 -58.778999999999776 -89.75679999999998 -60.86099999999978 -86.78379999999999 L -62.547999999999774 -84.19579999999999 C -63.114999999999775 -83.33879999999999 -63.67799999999978 -82.46979999999999 -64.20199999999977 -81.52879999999999 L -65.80499999999977 -78.76079999999999 C -66.31499999999977 -77.79879999999999 -66.79599999999976 -76.78979999999999 -67.28899999999976 -75.80279999999999 L -68.02199999999976 -74.3128 L -68.66799999999976 -72.7098 C -69.08499999999977 -71.6268 -69.53999999999976 -70.5878 -69.90999999999977 -69.4618 L -70.90399999999977 -65.9808 C -71.26199999999977 -64.8098 -71.40099999999977 -63.6788 -71.64799999999977 -62.522800000000004 C -72.01599999999976 -60.140800000000006 -72.28499999999977 -57.6578 -72.18899999999977 -54.890800000000006 C -72.04899999999977 -52.1118 -71.61299999999977 -49.006800000000005 -70.04999999999977 -45.60680000000001 C -69.19599999999977 -43.896800000000006 -68.14099999999976 -42.16180000000001 -66.54399999999977 -40.576800000000006 C -66.36899999999977 -40.393800000000006 -66.35499999999978 -40.402800000000006 -66.16699999999977 -40.226800000000004 C -66.15999999999977 -40.1698 -66.21499999999978 -39.890800000000006 -66.20599999999978 -39.826800000000006 C -65.96499999999978 -39.31680000000001 -65.74599999999978 -38.17980000000001 -65.66399999999977 -38.201800000000006 C -65.74599999999977 -38.45980000000001 -65.60799999999978 -39.56080000000001 -65.67299999999977 -39.76480000000001 C -65.57799999999978 -39.680800000000005 -65.49399999999977 -39.58980000000001 -65.39699999999978 -39.50780000000001 C -65.37299999999978 -39.21980000000001 -65.31299999999978 -38.83080000000001 -65.38099999999977 -38.84480000000001 C -65.27399999999977 -38.511800000000015 -65.22499999999977 -38.359800000000014 -65.08499999999977 -37.923800000000014 C -64.92199999999977 -37.468800000000016 -64.66999999999976 -36.90280000000001 -64.41499999999976 -36.322800000000015 C -64.27499999999976 -36.023800000000016 -64.16199999999976 -35.73880000000001 -63.975999999999765 -35.39680000000001 C -63.771999999999764 -35.041800000000016 -63.307999999999765 -34.29080000000001 -63.30399999999977 -34.28480000000001 L -63.03299999999977 -33.86480000000001 C -62.88599999999977 -33.63580000000001 -62.73099999999977 -33.40380000000001 -62.514999999999766 -33.14380000000001 C -62.161999999999765 -32.72080000000001 -61.780999999999764 -32.29380000000001 -61.371999999999765 -31.872800000000012 C -60.999999999999766 -31.45580000000001 -60.45899999999977 -31.027800000000013 -59.892999999999766 -30.619800000000012 C -59.31899999999977 -30.218800000000012 -58.761999999999766 -29.80480000000001 -58.05599999999976 -29.503800000000012 C -57.37599999999976 -29.196800000000014 -56.640999999999764 -28.873800000000013 -55.911999999999765 -28.683800000000012 C -55.185999999999765 -28.50880000000001 -54.42599999999977 -28.370800000000013 -53.655999999999764 -28.276800000000012 C -50.67499999999976 -28.061800000000012 -48.258999999999766 -28.79580000000001 -46.26099999999977 -29.64180000000001 C -44.237999999999765 -30.51480000000001 -42.57999999999977 -31.58680000000001 -41.05099999999977 -32.74880000000001 C -39.50499999999977 -33.91280000000001 -38.094999999999764 -35.17580000000001 -36.76699999999977 -36.52980000000001 C -34.09099999999977 -39.23480000000001 -31.69799999999977 -42.26380000000001 -29.54999999999977 -45.677800000000005 C -28.81099999999977 -46.851800000000004 -28.10899999999977 -48.07580000000001 -27.45199999999977 -49.3708 C -25.859999999999772 -51.1528 -24.29199999999977 -53.091800000000006 -22.85199999999977 -55.3158 C -22.434999999999768 -55.9468 -22.02599999999977 -56.6758 -21.64599999999977 -57.336800000000004 C -21.33299999999977 -57.9748 -21.02399999999977 -58.6058 -20.71899999999977 -59.226800000000004 C -20.13099999999977 -60.48480000000001 -19.47699999999977 -61.6518 -19.07699999999977 -62.90880000000001 C -18.63299999999977 -64.13780000000001 -18.20099999999977 -65.3048 -17.83299999999977 -66.4098 C -17.54999999999977 -67.55080000000001 -17.28699999999977 -68.6088 -17.04999999999977 -69.5638 C -16.93499999999977 -70.0438 -16.82599999999977 -70.4978 -16.72399999999977 -70.9228 C -16.658999999999768 -71.35679999999999 -16.597999999999768 -71.76079999999999 -16.54099999999977 -72.13279999999999 C -16.42099999999977 -72.87979999999999 -16.32099999999977 -73.4998 -16.24499999999977 -73.97079999999998 C -15.92599999999977 -75.85579999999999 -15.74499999999977 -75.36579999999998 -15.99199999999977 -71.00979999999998 C -15.31499999999977 -75.89579999999998 -15.56199999999977 -82.03279999999998 -17.22299999999977 -88.03379999999999 C -17.746999999999773 -89.99579999999999 -18.420999999999772 -91.92479999999999 -19.19099999999977 -93.81179999999999 C -19.150999999999772 -93.87379999999999 -19.110999999999773 -93.93079999999999 -19.071999999999772 -93.99279999999999 C -18.49599999999977 -94.90679999999999 -17.920999999999772 -95.81879999999998 -17.348999999999773 -96.72679999999998 C -16.250999999999774 -98.45779999999998 -15.202999999999772 -100.20579999999998 -14.084999999999773 -101.87379999999999 C -9.733999999999774 -108.62879999999998 -5.337999999999774 -114.82679999999999 -1.5579999999997742 -119.91179999999999 C -3.5329999999997743 -117.82779999999998 -4.864999999999775 -116.48579999999998 -5.582999999999775 -115.96779999999998 C -6.303999999999775 -115.45279999999998 -6.408999999999774 -115.75979999999998 -5.857999999999775 -116.92279999999998 C -4.745999999999775 -119.23579999999998 -1.014999999999775 -124.98379999999997 6.221000000000226 -133.9158 C 5.334000000000225 -132.3508 10.470000000000226 -138.1508 17.64900000000023 -145.3218 C 24.799000000000227 -152.5228 34.13200000000023 -160.92579999999998 40.32800000000023 -165.8068 C 37.55800000000023 -163.03480000000002 44.49800000000023 -168.4708 49.12700000000023 -171.6338 C 51.42300000000023 -173.2418 53.13900000000023 -174.2888 52.60200000000023 -173.72480000000002 C 52.07500000000023 -173.14780000000002 49.293000000000234 -170.9558 42.969000000000236 -165.6028 C 39.161000000000236 -162.6628 36.34300000000024 -160.5458 33.238000000000234 -158.0778 C 31.708000000000233 -156.8168 30.095000000000233 -155.47979999999998 28.300000000000235 -153.85479999999998 C 26.540000000000234 -152.19279999999998 24.520000000000234 -150.32379999999998 22.263000000000236 -147.91479999999999 C 25.306000000000235 -150.47879999999998 30.753000000000235 -155.29579999999999 37.747000000000234 -160.9388 C 44.728000000000236 -166.5958 53.27800000000023 -173.04979999999998 62.31000000000023 -179.0788 C 61.74400000000023 -178.43280000000001 59.18700000000023 -176.4198 55.72900000000023 -173.6168 C 52.27300000000022 -170.8108 47.882000000000225 -167.2588 43.589000000000226 -163.60580000000002 C 48.10100000000023 -167.7888 45.24100000000023 -165.65480000000002 44.400000000000226 -165.2998 C 36.84400000000023 -158.7348 33.76400000000022 -155.4768 33.028000000000226 -154.55780000000001 C 32.30700000000023 -153.61980000000003 33.99700000000023 -154.9358 36.49300000000022 -156.9298 C 41.483000000000224 -160.9348 49.93900000000022 -167.3148 47.91500000000022 -165.1188 C 51.94500000000022 -168.5618 58.51000000000022 -173.6258 63.066000000000216 -176.9238 C 67.63500000000022 -180.1988 70.04000000000022 -181.9588 65.46600000000022 -179.2038 C 69.91500000000022 -181.8788 75.49800000000022 -185.2358 81.67600000000022 -188.9498 C 87.86200000000022 -192.61180000000002 94.74100000000021 -196.4318 101.83100000000022 -199.9368 C 108.92300000000021 -203.4318 116.22300000000021 -206.6228 123.16400000000021 -209.0598 C 130.10500000000022 -211.4878 136.63500000000022 -213.3068 142.08900000000023 -214.28979999999999 C 142.53100000000023 -214.48979999999997 139.61500000000024 -213.9228 138.42500000000024 -213.8318 C 137.83000000000024 -213.7868 137.66700000000023 -213.85979999999998 138.57900000000024 -214.2078 C 139.03500000000022 -214.3818 139.76000000000025 -214.6248 140.83400000000023 -214.9568 C 141.90700000000024 -215.2918 143.32800000000023 -215.7248 145.19900000000024 -216.16479999999999 C 146.60100000000023 -216.4818 147.91000000000025 -216.77779999999998 149.13300000000024 -217.0538 C 150.35800000000023 -217.3238 151.50900000000024 -217.50379999999998 152.57500000000024 -217.7068 C 154.71200000000024 -218.09079999999997 156.55800000000025 -218.4478 158.07200000000023 -218.5638 C 159.61000000000024 -218.7188 160.91300000000024 -218.8498 162.04800000000023 -218.9638 C 163.18300000000022 -219.0708 164.14900000000023 -219.1598 165.02100000000024 -219.1178 C 166.76000000000025 -219.0968 168.09000000000023 -219.04379999999998 169.54100000000025 -219.0048 C 170.26700000000025 -218.9718 171.02100000000024 -219.00379999999998 171.87400000000025 -218.9338 C 172.72700000000026 -218.85979999999998 173.67600000000024 -218.7878 174.78700000000026 -218.72279999999998 C 178.02400000000026 -219.11279999999996 187.99300000000025 -218.49379999999996 196.53700000000026 -216.51579999999998 C 197.60500000000027 -216.2728 198.65400000000025 -216.0348 199.67000000000027 -215.8038 C 200.69100000000026 -215.58679999999998 201.63800000000026 -215.2248 202.55900000000028 -214.9628 C 204.3880000000003 -214.3918 206.0380000000003 -213.91279999999998 207.35700000000028 -213.46579999999997 C 209.9530000000003 -212.44579999999996 211.3290000000003 -211.88579999999996 210.5500000000003 -212.12679999999997 C 212.27400000000029 -211.50179999999997 213.3590000000003 -211.16279999999998 213.9550000000003 -210.98879999999997 C 214.5420000000003 -210.79179999999997 214.6670000000003 -210.82479999999998 214.4960000000003 -211.00679999999997 C 214.1730000000003 -211.41479999999996 212.57700000000028 -212.20879999999997 211.1700000000003 -213.01479999999998 C 209.7590000000003 -213.80679999999998 208.5090000000003 -214.54879999999997 208.8390000000003 -214.65579999999997 C 209.0050000000003 -214.70879999999997 209.56600000000032 -214.60379999999998 210.7020000000003 -214.26679999999996 C 211.2710000000003 -214.09879999999995 211.98400000000032 -213.87179999999995 212.86400000000032 -213.57979999999995 C 213.74500000000032 -213.28879999999995 214.80000000000032 -212.95079999999996 215.98900000000032 -212.40079999999995 C 217.6490000000003 -211.76979999999995 219.37600000000032 -211.07579999999996 221.1550000000003 -210.33279999999993 C 222.8930000000003 -209.50779999999995 224.65000000000032 -208.56279999999992 226.4620000000003 -207.61679999999993 C 226.9140000000003 -207.37679999999992 227.3680000000003 -207.13579999999993 227.8250000000003 -206.89279999999994 C 228.2730000000003 -206.63379999999995 228.7080000000003 -206.34679999999994 229.1530000000003 -206.07179999999994 C 229.36400000000032 -205.93879999999993 229.5790000000003 -205.80179999999993 229.79200000000031 -205.66879999999995 C 231.6880000000003 -203.83579999999995 234.37700000000032 -201.50479999999996 237.9340000000003 -199.02179999999996 C 237.9370000000003 -199.01979999999995 237.9390000000003 -199.01779999999997 237.94100000000032 -199.01679999999996 C 236.5990000000003 -199.95979999999997 235.46700000000033 -200.74579999999997 234.6770000000003 -201.27279999999996 C 237.8970000000003 -199.05879999999996 241.00700000000032 -196.67679999999996 243.99500000000032 -194.14679999999996 C 250.16800000000032 -188.61279999999996 255.8330000000003 -181.95879999999997 257.0080000000003 -179.42679999999996 C 257.4130000000003 -178.55279999999996 257.70000000000033 -177.86679999999996 258.01900000000035 -177.15079999999995 C 253.09100000000035 -183.37179999999995 247.85800000000035 -188.68679999999995 242.50900000000036 -193.25179999999995 C 234.86300000000037 -199.74479999999994 226.89500000000035 -204.71179999999995 218.63200000000035 -208.20279999999994 C 225.69100000000034 -204.46279999999993 233.30400000000034 -199.57379999999995 240.40600000000035 -193.64279999999994 C 247.52200000000033 -187.73679999999993 254.10000000000034 -180.81679999999994 259.46400000000034 -173.68879999999993 C 259.94400000000036 -173.02579999999992 260.43300000000033 -172.37679999999992 260.9170000000003 -171.72879999999992 C 261.8770000000003 -170.12679999999992 263.1570000000003 -168.07579999999993 264.95200000000034 -165.29579999999993 C 265.49900000000036 -163.68079999999992 266.0150000000003 -162.02179999999993 266.46400000000034 -160.26979999999992 C 268.43400000000037 -152.81179999999992 269.46800000000036 -144.04379999999992 268.86200000000036 -133.59879999999993 C 268.74500000000035 -134.45279999999994 268.7720000000004 -139.55979999999994 268.5560000000004 -142.11279999999994 C 269.0270000000004 -132.36179999999993 267.80400000000037 -123.96979999999994 266.4130000000004 -116.53879999999994 C 264.9870000000004 -109.09079999999994 263.34000000000043 -102.53879999999994 262.0600000000004 -96.07679999999993 C 259.4560000000004 -86.72279999999994 258.7390000000004 -85.97179999999993 257.8140000000004 -83.93779999999994 C 256.85900000000044 -81.88479999999994 255.58300000000042 -78.64579999999994 251.14100000000042 -64.00579999999994 C 253.08700000000042 -68.10779999999994 250.47100000000043 -59.515799999999935 247.3890000000004 -49.90079999999993 z M 255.685 -43.5658 C 256.455 -46.0088 257.2 -48.466800000000006 257.951 -50.9208 C 258.379 -50.9838 260.22400000000005 -53.9348 261.66700000000003 -56.1438 C 259.754 -51.919799999999995 257.75300000000004 -47.7298 255.68500000000003 -43.565799999999996 z M 275.68 -116.2988 L 275.59000000000003 -113.5978 L 275.31800000000004 -110.90480000000001 C 275.136 -109.1068 274.95500000000004 -107.3058 274.771 -105.4928 C 274.475 -103.6908 274.177 -101.8768 273.87600000000003 -100.0438 C 273.72400000000005 -99.1268 273.569 -98.2048 273.415 -97.27680000000001 C 273.208 -96.3568 273.00100000000003 -95.43180000000001 272.791 -94.49980000000001 C 272.361 -92.6358 271.925 -90.74480000000001 271.481 -88.81980000000001 C 269.424 -81.16980000000001 266.722 -73.06480000000002 263.001 -64.12880000000001 C 261.21599999999995 -59.801800000000014 259.96999999999997 -56.77980000000001 259.126 -54.733800000000016 C 260.412 -58.97980000000002 261.685 -63.230800000000016 262.959 -67.47480000000002 C 265.386 -75.52980000000002 267.813 -83.63580000000002 269.989 -91.84980000000002 C 272.14799999999997 -100.06780000000002 274.05899999999997 -108.39780000000002 275.37199999999996 -116.87080000000002 C 275.52399999999994 -117.81980000000001 275.66299999999995 -118.77180000000001 275.79499999999996 -119.72480000000002 C 275.75699999999995 -118.58180000000002 275.71799999999996 -117.43580000000001 275.67999999999995 -116.29880000000001 z" stroke-linecap="round" />
</g>
</svg>